<svg id="Layer_1" data-name="Layer 1" xmlns="http://www.w3.org/2000/svg" viewBox="0 0 156.82 97.97"><defs><style>.cls-1{fill:#fdc013;}.cls-2{fill:#3d3d3b;}</style></defs><path class="cls-1" d="M300.56,153.14c8.19,4.43,15.52,10.21,23.41,15.1,1.67,1,2.19,2.67,2.17,4.74-.11,13.11-.06,26.21-.05,39.31,0,12.19,10.44,18.4,21.23,12.47,4.72-2.6,4.9-7.57,4.94-12.12.15-18.6.06-37.19.1-55.79,0-1.16-.76-2.72.53-3.43s2.17.88,3.13,1.49c6.59,4.28,13.06,8.76,19.67,13a5.35,5.35,0,0,1,2.77,5.11c-.1,14.35.27,28.71-.16,43.05-.45,15.45-6.88,25.53-21.47,30.85-14.87,5.42-29.92,4.49-43.49-4.33a27.58,27.58,0,0,1-12.82-23c-.43-14.72-.21-29.45-.26-44.18Z" transform="translate(-221.69 -152.32)"/><path class="cls-2" d="M300.56,153.14l-.3,22.27c-7.61-.13-15.23-.12-22.83-.45-2.95-.13-3.48.93-3.47,3.62.1,22.47.06,44.94.05,67.42v3.93c-7.42-5-14.15-9.85-21.3-14-3.91-2.28-5-4.94-4.89-9.26.26-16.1,0-32.21.16-48.31,0-2.61-.66-3.43-3.3-3.36-6.74.17-13.49,0-20.23.1-2.1,0-2.79-.54-2.73-2.69.15-5.36.23-10.74,0-16.1-.13-3,.63-4,3.84-4,18.73.17,37.46.08,56.19.09,5.25,0,10.49,0,15.73,0C298.53,152.43,299.75,152,300.56,153.14Z" transform="translate(-221.69 -152.32)"/></svg>